# xmcd
# 
# Track frame offsets:
#     150
#     10087
#     26635
#     41647
#     60212
#     71937
#     75860
#     102480
#     116302
#     142870
# 
# Disc length: 2145
# 
# Revision: 11
# Processed by: cddbd v1.5.2PL0 Copyright (c) Steve Scherf et al.
# Submitted via: fre:ac v1.1beta1pre5
# 
DISCID=73085f0a
DTITLE=The Cure - Seventeen Seconds
DYEAR=1980
DGENRE=New Wave
TTITLE0=A Reflection
TTITLE1=Play For Today
TTITLE2=Secrets
TTITLE3=In Your House
TTITLE4=Three
TTITLE5=The Final Sound
TTITLE6=A Forest
TTITLE7=M
TTITLE8=At Night
TTITLE9=Seventeen Seconds
EXTD=YEAR: 1980
EXTT0=
EXTT1=
EXTT2=
EXTT3=
EXTT4=
EXTT5=
EXTT6=
EXTT7=
EXTT8=
EXTT9=
PLAYORDER=
